<svg version="1.1" xmlns="http://www.w3.org/2000/svg" viewBox="0 0 472 455" width="1416" height="1365">
  <!-- svg-source:excalidraw -->
  
  <defs>
    <style>
      @font-face {
        font-family: "Virgil";
        src: url("https://excalidraw.com/Virgil.woff2");
      }
      @font-face {
        font-family: "Cascadia";
        src: url("https://excalidraw.com/Cascadia.woff2");
      }
    </style>
  </defs>
  <g stroke-linecap="round" transform="translate(10 10) rotate(0 226 217.5)"><path d="M108.75 0 L343.25 0 L368.74 1.7 L380.21 3.82 L390.83 6.8 L400.6 10.62 L409.52 15.29 L417.59 20.82 L424.81 27.19 L431.18 34.41 L436.71 42.48 L441.38 51.4 L445.2 61.17 L448.18 71.79 L451.58 95.58 L451.58 339.42 L448.18 363.21 L445.2 373.83 L441.38 383.6 L436.71 392.52 L431.18 400.59 L424.81 407.81 L417.59 414.18 L409.52 419.71 L400.6 424.38 L390.83 428.2 L380.21 431.18 L356.42 434.58 L95.58 434.58 L71.79 431.18 L61.17 428.2 L51.4 424.38 L42.48 419.71 L34.41 414.18 L27.19 407.81 L20.82 400.59 L15.29 392.52 L10.62 383.6 L6.8 373.83 L3.82 363.21 L0.42 339.42 L0 108.75 L0.42 95.58 L3.82 71.79 L6.8 61.17 L10.62 51.4 L15.29 42.48 L20.82 34.41 L27.19 27.19 L34.41 20.82 L42.48 15.29 L51.4 10.62 L61.17 6.8 L71.79 3.82 L83.26 1.7 L108.75 0" stroke="none" stroke-width="0" fill="#242325ff"></path><path d="M108.75 0 M108.75 0 C192.44 0, 276.13 0, 343.25 0 M108.75 0 C188.44 0, 268.13 0, 343.25 0 M343.25 0 C415.75 0, 452 36.25, 452 108.75 M343.25 0 C415.75 0, 452 36.25, 452 108.75 M452 108.75 C452 153.19, 452 197.62, 452 326.25 M452 108.75 C452 173.91, 452 239.06, 452 326.25 M452 326.25 C452 398.75, 415.75 435, 343.25 435 M452 326.25 C452 398.75, 415.75 435, 343.25 435 M343.25 435 C270.92 435, 198.59 435, 108.75 435 M343.25 435 C283.84 435, 224.42 435, 108.75 435 M108.75 435 C36.25 435, 0 398.75, 0 326.25 M108.75 435 C36.25 435, 0 398.75, 0 326.25 M0 326.25 C0 280.74, 0 235.24, 0 108.75 M0 326.25 C0 256.94, 0 187.62, 0 108.75 M0 108.75 C0 36.25, 36.25 0, 108.75 0 M0 108.75 C0 36.25, 36.25 0, 108.75 0" stroke="#000" stroke-width="4" fill="none"></path></g><g stroke-linecap="round" transform="translate(308.72863835566193 167.06549751482203) rotate(0 50.63571133974716 51.34390310673663)"><path d="M101.27 51.34 C101.27 53.58, 101.13 55.83, 100.84 58.05 C100.55 60.26, 100.12 62.47, 99.55 64.63 C98.98 66.79, 98.26 68.93, 97.42 70.99 C96.57 73.06, 95.59 75.08, 94.49 77.02 C93.39 78.95, 92.15 80.83, 90.81 82.6 C89.47 84.37, 88 86.07, 86.44 87.65 C84.88 89.23, 83.21 90.72, 81.46 92.08 C79.71 93.44, 77.86 94.69, 75.95 95.81 C74.05 96.93, 72.05 97.92, 70.01 98.78 C67.98 99.63, 65.87 100.36, 63.74 100.94 C61.61 101.52, 59.43 101.96, 57.24 102.25 C55.06 102.54, 52.84 102.69, 50.64 102.69 C48.43 102.69, 46.21 102.54, 44.03 102.25 C41.84 101.96, 39.66 101.52, 37.53 100.94 C35.4 100.36, 33.29 99.63, 31.26 98.78 C29.22 97.92, 27.23 96.93, 25.32 95.81 C23.41 94.69, 21.56 93.44, 19.81 92.08 C18.06 90.72, 16.39 89.23, 14.83 87.65 C13.27 86.07, 11.8 84.37, 10.46 82.6 C9.12 80.83, 7.89 78.95, 6.78 77.02 C5.68 75.08, 4.7 73.06, 3.85 70.99 C3.01 68.93, 2.3 66.79, 1.73 64.63 C1.16 62.47, 0.72 60.26, 0.43 58.05 C0.15 55.83, 0 53.58, 0 51.34 C0 49.11, 0.15 46.86, 0.43 44.64 C0.72 42.43, 1.16 40.21, 1.73 38.06 C2.3 35.9, 3.01 33.76, 3.85 31.7 C4.7 29.63, 5.68 27.61, 6.78 25.67 C7.89 23.74, 9.12 21.86, 10.46 20.09 C11.8 18.32, 13.27 16.62, 14.83 15.04 C16.39 13.46, 18.06 11.97, 19.81 10.61 C21.56 9.25, 23.41 8, 25.32 6.88 C27.23 5.76, 29.22 4.76, 31.26 3.91 C33.29 3.05, 35.4 2.33, 37.53 1.75 C39.66 1.17, 41.84 0.73, 44.03 0.44 C46.21 0.15, 48.43 0, 50.64 0 C52.84 0, 55.06 0.15, 57.24 0.44 C59.43 0.73, 61.61 1.17, 63.74 1.75 C65.87 2.33, 67.98 3.05, 70.01 3.91 C72.05 4.76, 74.05 5.76, 75.95 6.88 C77.86 8, 79.71 9.25, 81.46 10.61 C83.21 11.97, 84.88 13.46, 86.44 15.04 C88 16.62, 89.47 18.32, 90.81 20.09 C92.15 21.86, 93.39 23.74, 94.49 25.67 C95.59 27.61, 96.57 29.63, 97.42 31.7 C98.26 33.76, 98.98 35.9, 99.55 38.06 C100.12 40.21, 100.55 42.43, 100.84 44.64 C101.13 46.86, 101.2 50.23, 101.27 51.34 C101.34 52.46, 101.34 50.23, 101.27 51.34" stroke="none" stroke-width="0" fill="#dc965aff"></path><path d="M101.27 51.34 C101.27 53.58, 101.13 55.83, 100.84 58.05 C100.55 60.26, 100.12 62.47, 99.55 64.63 C98.98 66.79, 98.26 68.93, 97.42 70.99 C96.57 73.06, 95.59 75.08, 94.49 77.02 C93.39 78.95, 92.15 80.83, 90.81 82.6 C89.47 84.37, 88 86.07, 86.44 87.65 C84.88 89.23, 83.21 90.72, 81.46 92.08 C79.71 93.44, 77.86 94.69, 75.95 95.81 C74.05 96.93, 72.05 97.92, 70.01 98.78 C67.98 99.63, 65.87 100.36, 63.74 100.94 C61.61 101.52, 59.43 101.96, 57.24 102.25 C55.06 102.54, 52.84 102.69, 50.64 102.69 C48.43 102.69, 46.21 102.54, 44.03 102.25 C41.84 101.96, 39.66 101.52, 37.53 100.94 C35.4 100.36, 33.29 99.63, 31.26 98.78 C29.22 97.92, 27.23 96.93, 25.32 95.81 C23.41 94.69, 21.56 93.44, 19.81 92.08 C18.06 90.72, 16.39 89.23, 14.83 87.65 C13.27 86.07, 11.8 84.37, 10.46 82.6 C9.12 80.83, 7.89 78.95, 6.78 77.02 C5.68 75.08, 4.7 73.06, 3.85 70.99 C3.01 68.93, 2.3 66.79, 1.73 64.63 C1.16 62.47, 0.72 60.26, 0.43 58.05 C0.15 55.83, 0 53.58, 0 51.34 C0 49.11, 0.15 46.86, 0.43 44.64 C0.72 42.43, 1.16 40.21, 1.73 38.06 C2.3 35.9, 3.01 33.76, 3.85 31.7 C4.7 29.63, 5.68 27.61, 6.78 25.67 C7.89 23.74, 9.12 21.86, 10.46 20.09 C11.8 18.32, 13.27 16.62, 14.83 15.04 C16.39 13.46, 18.06 11.97, 19.81 10.61 C21.56 9.25, 23.41 8, 25.32 6.88 C27.23 5.76, 29.22 4.76, 31.26 3.91 C33.29 3.05, 35.4 2.33, 37.53 1.75 C39.66 1.17, 41.84 0.73, 44.03 0.44 C46.21 0.15, 48.43 0, 50.64 0 C52.84 0, 55.06 0.15, 57.24 0.44 C59.43 0.73, 61.61 1.17, 63.74 1.75 C65.87 2.33, 67.98 3.05, 70.01 3.91 C72.05 4.76, 74.05 5.76, 75.95 6.88 C77.86 8, 79.71 9.25, 81.46 10.61 C83.21 11.97, 84.88 13.46, 86.44 15.04 C88 16.62, 89.47 18.32, 90.81 20.09 C92.15 21.86, 93.39 23.74, 94.49 25.67 C95.59 27.61, 96.57 29.63, 97.42 31.7 C98.26 33.76, 98.98 35.9, 99.55 38.06 C100.12 40.21, 100.55 42.43, 100.84 44.64 C101.13 46.86, 101.2 50.23, 101.27 51.34 C101.34 52.46, 101.34 50.23, 101.27 51.34" stroke="#000000" stroke-width="4" fill="none"></path></g><g stroke-linecap="round" transform="translate(306.95815893818826 287.8121937865268) rotate(0 50.63571133974716 51.343903106736605)"><path d="M101.27 51.34 C101.27 53.58, 101.13 55.83, 100.84 58.05 C100.55 60.26, 100.12 62.47, 99.55 64.63 C98.98 66.79, 98.26 68.93, 97.42 70.99 C96.57 73.06, 95.59 75.08, 94.49 77.02 C93.39 78.95, 92.15 80.83, 90.81 82.6 C89.47 84.37, 88 86.07, 86.44 87.65 C84.88 89.23, 83.21 90.72, 81.46 92.08 C79.71 93.44, 77.86 94.69, 75.95 95.81 C74.05 96.93, 72.05 97.92, 70.01 98.78 C67.98 99.63, 65.87 100.36, 63.74 100.94 C61.61 101.52, 59.43 101.96, 57.24 102.25 C55.06 102.54, 52.84 102.69, 50.64 102.69 C48.43 102.69, 46.21 102.54, 44.03 102.25 C41.84 101.96, 39.66 101.52, 37.53 100.94 C35.4 100.36, 33.29 99.63, 31.26 98.78 C29.22 97.92, 27.23 96.93, 25.32 95.81 C23.41 94.69, 21.56 93.44, 19.81 92.08 C18.06 90.72, 16.39 89.23, 14.83 87.65 C13.27 86.07, 11.8 84.37, 10.46 82.6 C9.12 80.83, 7.89 78.95, 6.78 77.02 C5.68 75.08, 4.7 73.06, 3.85 70.99 C3.01 68.93, 2.3 66.79, 1.73 64.63 C1.16 62.47, 0.72 60.26, 0.43 58.05 C0.15 55.83, 0 53.58, 0 51.34 C0 49.11, 0.15 46.86, 0.43 44.64 C0.72 42.43, 1.16 40.21, 1.73 38.06 C2.3 35.9, 3.01 33.76, 3.85 31.7 C4.7 29.63, 5.68 27.61, 6.78 25.67 C7.89 23.74, 9.12 21.86, 10.46 20.09 C11.8 18.32, 13.27 16.62, 14.83 15.04 C16.39 13.46, 18.06 11.97, 19.81 10.61 C21.56 9.25, 23.41 8, 25.32 6.88 C27.23 5.76, 29.22 4.76, 31.26 3.91 C33.29 3.05, 35.4 2.33, 37.53 1.75 C39.66 1.17, 41.84 0.73, 44.03 0.44 C46.21 0.15, 48.43 0, 50.64 0 C52.84 0, 55.06 0.15, 57.24 0.44 C59.43 0.73, 61.61 1.17, 63.74 1.75 C65.87 2.33, 67.98 3.05, 70.01 3.91 C72.05 4.76, 74.05 5.76, 75.95 6.88 C77.86 8, 79.71 9.25, 81.46 10.61 C83.21 11.97, 84.88 13.46, 86.44 15.04 C88 16.62, 89.47 18.32, 90.81 20.09 C92.15 21.86, 93.39 23.74, 94.49 25.67 C95.59 27.61, 96.57 29.63, 97.42 31.7 C98.26 33.76, 98.98 35.9, 99.55 38.06 C100.12 40.21, 100.55 42.43, 100.84 44.64 C101.13 46.86, 101.2 50.23, 101.27 51.34 C101.34 52.46, 101.34 50.23, 101.27 51.34" stroke="none" stroke-width="0" fill="#dc965aff"></path><path d="M101.27 51.34 C101.27 53.58, 101.13 55.83, 100.84 58.05 C100.55 60.26, 100.12 62.47, 99.55 64.63 C98.98 66.79, 98.26 68.93, 97.42 70.99 C96.57 73.06, 95.59 75.08, 94.49 77.02 C93.39 78.95, 92.15 80.83, 90.81 82.6 C89.47 84.37, 88 86.07, 86.44 87.65 C84.88 89.23, 83.21 90.72, 81.46 92.08 C79.71 93.44, 77.86 94.69, 75.95 95.81 C74.05 96.93, 72.05 97.92, 70.01 98.78 C67.98 99.63, 65.87 100.36, 63.74 100.94 C61.61 101.52, 59.43 101.96, 57.24 102.25 C55.06 102.54, 52.84 102.69, 50.64 102.69 C48.43 102.69, 46.21 102.54, 44.03 102.25 C41.84 101.96, 39.66 101.52, 37.53 100.94 C35.4 100.36, 33.29 99.63, 31.26 98.78 C29.22 97.92, 27.23 96.93, 25.32 95.81 C23.41 94.69, 21.56 93.44, 19.81 92.08 C18.06 90.72, 16.39 89.23, 14.83 87.65 C13.27 86.07, 11.8 84.37, 10.46 82.6 C9.12 80.83, 7.89 78.95, 6.78 77.02 C5.68 75.08, 4.7 73.06, 3.85 70.99 C3.01 68.93, 2.3 66.79, 1.73 64.63 C1.16 62.47, 0.72 60.26, 0.43 58.05 C0.15 55.83, 0 53.58, 0 51.34 C0 49.11, 0.15 46.86, 0.43 44.64 C0.72 42.43, 1.16 40.21, 1.73 38.06 C2.3 35.9, 3.01 33.76, 3.85 31.7 C4.7 29.63, 5.68 27.61, 6.78 25.67 C7.89 23.74, 9.12 21.86, 10.46 20.09 C11.8 18.32, 13.27 16.62, 14.83 15.04 C16.39 13.46, 18.06 11.97, 19.81 10.61 C21.56 9.25, 23.41 8, 25.32 6.88 C27.23 5.76, 29.22 4.76, 31.26 3.91 C33.29 3.05, 35.4 2.33, 37.53 1.75 C39.66 1.17, 41.84 0.73, 44.03 0.44 C46.21 0.15, 48.43 0, 50.64 0 C52.84 0, 55.06 0.15, 57.24 0.44 C59.43 0.73, 61.61 1.17, 63.74 1.75 C65.87 2.33, 67.98 3.05, 70.01 3.91 C72.05 4.76, 74.05 5.76, 75.95 6.88 C77.86 8, 79.71 9.25, 81.46 10.61 C83.21 11.97, 84.88 13.46, 86.44 15.04 C88 16.62, 89.47 18.32, 90.81 20.09 C92.15 21.86, 93.39 23.74, 94.49 25.67 C95.59 27.61, 96.57 29.63, 97.42 31.7 C98.26 33.76, 98.98 35.9, 99.55 38.06 C100.12 40.21, 100.55 42.43, 100.84 44.64 C101.13 46.86, 101.2 50.23, 101.27 51.34 C101.34 52.46, 101.34 50.23, 101.27 51.34" stroke="#000000" stroke-width="4" fill="none"></path></g><g stroke-linecap="round" transform="translate(182.5 291.90398981250604) rotate(0 50.63571133974716 51.34390310673663)"><path d="M101.27 51.34 C101.27 53.58, 101.13 55.83, 100.84 58.05 C100.55 60.26, 100.12 62.47, 99.55 64.63 C98.98 66.79, 98.26 68.93, 97.42 70.99 C96.57 73.06, 95.59 75.08, 94.49 77.02 C93.39 78.95, 92.15 80.83, 90.81 82.6 C89.47 84.37, 88 86.07, 86.44 87.65 C84.88 89.23, 83.21 90.72, 81.46 92.08 C79.71 93.44, 77.86 94.69, 75.95 95.81 C74.05 96.93, 72.05 97.92, 70.01 98.78 C67.98 99.63, 65.87 100.36, 63.74 100.94 C61.61 101.52, 59.43 101.96, 57.24 102.25 C55.06 102.54, 52.84 102.69, 50.64 102.69 C48.43 102.69, 46.21 102.54, 44.03 102.25 C41.84 101.96, 39.66 101.52, 37.53 100.94 C35.4 100.36, 33.29 99.63, 31.26 98.78 C29.22 97.92, 27.23 96.93, 25.32 95.81 C23.41 94.69, 21.56 93.44, 19.81 92.08 C18.06 90.72, 16.39 89.23, 14.83 87.65 C13.27 86.07, 11.8 84.37, 10.46 82.6 C9.12 80.83, 7.89 78.95, 6.78 77.02 C5.68 75.08, 4.7 73.06, 3.85 70.99 C3.01 68.93, 2.3 66.79, 1.73 64.63 C1.16 62.47, 0.72 60.26, 0.43 58.05 C0.15 55.83, 0 53.58, 0 51.34 C0 49.11, 0.15 46.86, 0.43 44.64 C0.72 42.43, 1.16 40.21, 1.73 38.06 C2.3 35.9, 3.01 33.76, 3.85 31.7 C4.7 29.63, 5.68 27.61, 6.78 25.67 C7.89 23.74, 9.12 21.86, 10.46 20.09 C11.8 18.32, 13.27 16.62, 14.83 15.04 C16.39 13.46, 18.06 11.97, 19.81 10.61 C21.56 9.25, 23.41 8, 25.32 6.88 C27.23 5.76, 29.22 4.76, 31.26 3.91 C33.29 3.05, 35.4 2.33, 37.53 1.75 C39.66 1.17, 41.84 0.73, 44.03 0.44 C46.21 0.15, 48.43 0, 50.64 0 C52.84 0, 55.06 0.15, 57.24 0.44 C59.43 0.73, 61.61 1.17, 63.74 1.75 C65.87 2.33, 67.98 3.05, 70.01 3.91 C72.05 4.76, 74.05 5.76, 75.95 6.88 C77.86 8, 79.71 9.25, 81.46 10.61 C83.21 11.97, 84.88 13.46, 86.44 15.04 C88 16.62, 89.47 18.32, 90.81 20.09 C92.15 21.86, 93.39 23.74, 94.49 25.67 C95.59 27.61, 96.57 29.63, 97.42 31.7 C98.26 33.76, 98.98 35.9, 99.55 38.06 C100.12 40.21, 100.55 42.43, 100.84 44.64 C101.13 46.86, 101.2 50.23, 101.27 51.34 C101.34 52.46, 101.34 50.23, 101.27 51.34" stroke="none" stroke-width="0" fill="#b3b3b3ff"></path><path d="M101.27 51.34 C101.27 53.58, 101.13 55.83, 100.84 58.05 C100.55 60.26, 100.12 62.47, 99.55 64.63 C98.98 66.79, 98.26 68.93, 97.42 70.99 C96.57 73.06, 95.59 75.08, 94.49 77.02 C93.39 78.95, 92.15 80.83, 90.81 82.6 C89.47 84.37, 88 86.07, 86.44 87.65 C84.88 89.23, 83.21 90.72, 81.46 92.08 C79.71 93.44, 77.86 94.69, 75.95 95.81 C74.05 96.93, 72.05 97.92, 70.01 98.78 C67.98 99.63, 65.87 100.36, 63.74 100.94 C61.61 101.52, 59.43 101.96, 57.24 102.25 C55.06 102.54, 52.84 102.69, 50.64 102.69 C48.43 102.69, 46.21 102.54, 44.03 102.25 C41.84 101.96, 39.66 101.52, 37.53 100.94 C35.4 100.36, 33.29 99.63, 31.26 98.78 C29.22 97.92, 27.23 96.93, 25.32 95.81 C23.41 94.69, 21.56 93.44, 19.81 92.08 C18.06 90.72, 16.39 89.23, 14.83 87.65 C13.27 86.07, 11.8 84.37, 10.46 82.6 C9.12 80.83, 7.89 78.95, 6.78 77.02 C5.68 75.08, 4.7 73.06, 3.85 70.99 C3.01 68.93, 2.3 66.79, 1.73 64.63 C1.16 62.47, 0.72 60.26, 0.43 58.05 C0.15 55.83, 0 53.58, 0 51.34 C0 49.11, 0.15 46.86, 0.43 44.64 C0.72 42.43, 1.16 40.21, 1.73 38.06 C2.3 35.9, 3.01 33.76, 3.85 31.7 C4.7 29.63, 5.68 27.61, 6.78 25.67 C7.89 23.74, 9.12 21.86, 10.46 20.09 C11.8 18.32, 13.27 16.62, 14.83 15.04 C16.39 13.46, 18.06 11.97, 19.81 10.61 C21.56 9.25, 23.41 8, 25.32 6.88 C27.23 5.76, 29.22 4.76, 31.26 3.91 C33.29 3.05, 35.4 2.33, 37.53 1.75 C39.66 1.17, 41.84 0.73, 44.03 0.44 C46.21 0.15, 48.43 0, 50.64 0 C52.84 0, 55.06 0.15, 57.24 0.44 C59.43 0.73, 61.61 1.17, 63.74 1.75 C65.87 2.33, 67.98 3.05, 70.01 3.91 C72.05 4.76, 74.05 5.76, 75.95 6.88 C77.86 8, 79.71 9.25, 81.46 10.61 C83.21 11.97, 84.88 13.46, 86.44 15.04 C88 16.62, 89.47 18.32, 90.81 20.09 C92.15 21.86, 93.39 23.74, 94.49 25.67 C95.59 27.61, 96.57 29.63, 97.42 31.7 C98.26 33.76, 98.98 35.9, 99.55 38.06 C100.12 40.21, 100.55 42.43, 100.84 44.64 C101.13 46.86, 101.2 50.23, 101.27 51.34 C101.34 52.46, 101.34 50.23, 101.27 51.34" stroke="#000000" stroke-width="4" fill="none"></path></g><g stroke-linecap="round" transform="translate(182.4082039740207 167.69501199383274) rotate(0 50.63571133974716 51.34390310673663)"><path d="M101.27 51.34 C101.27 53.58, 101.13 55.83, 100.84 58.05 C100.55 60.26, 100.12 62.47, 99.55 64.63 C98.98 66.79, 98.26 68.93, 97.42 70.99 C96.57 73.06, 95.59 75.08, 94.49 77.02 C93.39 78.95, 92.15 80.83, 90.81 82.6 C89.47 84.37, 88 86.07, 86.44 87.65 C84.88 89.23, 83.21 90.72, 81.46 92.08 C79.71 93.44, 77.86 94.69, 75.95 95.81 C74.05 96.93, 72.05 97.92, 70.01 98.78 C67.98 99.63, 65.87 100.36, 63.74 100.94 C61.61 101.52, 59.43 101.96, 57.24 102.25 C55.06 102.54, 52.84 102.69, 50.64 102.69 C48.43 102.69, 46.21 102.54, 44.03 102.25 C41.84 101.96, 39.66 101.52, 37.53 100.94 C35.4 100.36, 33.29 99.63, 31.26 98.78 C29.22 97.92, 27.23 96.93, 25.32 95.81 C23.41 94.69, 21.56 93.44, 19.81 92.08 C18.06 90.72, 16.39 89.23, 14.83 87.65 C13.27 86.07, 11.8 84.37, 10.46 82.6 C9.12 80.83, 7.89 78.95, 6.78 77.02 C5.68 75.08, 4.7 73.06, 3.85 70.99 C3.01 68.93, 2.3 66.79, 1.73 64.63 C1.16 62.47, 0.72 60.26, 0.43 58.05 C0.15 55.83, 0 53.58, 0 51.34 C0 49.11, 0.15 46.86, 0.43 44.64 C0.72 42.43, 1.16 40.21, 1.73 38.06 C2.3 35.9, 3.01 33.76, 3.85 31.7 C4.7 29.63, 5.68 27.61, 6.78 25.67 C7.89 23.74, 9.12 21.86, 10.46 20.09 C11.8 18.32, 13.27 16.62, 14.83 15.04 C16.39 13.46, 18.06 11.97, 19.81 10.61 C21.56 9.25, 23.41 8, 25.32 6.88 C27.23 5.76, 29.22 4.76, 31.26 3.91 C33.29 3.05, 35.4 2.33, 37.53 1.75 C39.66 1.17, 41.84 0.73, 44.03 0.44 C46.21 0.15, 48.43 0, 50.64 0 C52.84 0, 55.06 0.15, 57.24 0.44 C59.43 0.73, 61.61 1.17, 63.74 1.75 C65.87 2.33, 67.98 3.05, 70.01 3.91 C72.05 4.76, 74.05 5.76, 75.95 6.88 C77.86 8, 79.71 9.25, 81.46 10.61 C83.21 11.97, 84.88 13.46, 86.44 15.04 C88 16.62, 89.47 18.32, 90.81 20.09 C92.15 21.86, 93.39 23.74, 94.49 25.67 C95.59 27.61, 96.57 29.63, 97.42 31.7 C98.26 33.76, 98.98 35.9, 99.55 38.06 C100.12 40.21, 100.55 42.43, 100.84 44.64 C101.13 46.86, 101.2 50.23, 101.27 51.34 C101.34 52.46, 101.34 50.23, 101.27 51.34" stroke="none" stroke-width="0" fill="#b3b3b3ff"></path><path d="M101.27 51.34 C101.27 53.58, 101.13 55.83, 100.84 58.05 C100.55 60.26, 100.12 62.47, 99.55 64.63 C98.98 66.79, 98.26 68.93, 97.42 70.99 C96.57 73.06, 95.59 75.08, 94.49 77.02 C93.39 78.95, 92.15 80.83, 90.81 82.6 C89.47 84.37, 88 86.07, 86.44 87.65 C84.88 89.23, 83.21 90.72, 81.46 92.08 C79.71 93.44, 77.86 94.69, 75.95 95.81 C74.05 96.93, 72.05 97.92, 70.01 98.78 C67.98 99.63, 65.87 100.36, 63.74 100.94 C61.61 101.52, 59.43 101.96, 57.24 102.25 C55.06 102.54, 52.84 102.69, 50.64 102.69 C48.43 102.69, 46.21 102.54, 44.03 102.25 C41.84 101.96, 39.66 101.52, 37.53 100.94 C35.4 100.36, 33.29 99.63, 31.26 98.78 C29.22 97.92, 27.23 96.93, 25.32 95.81 C23.41 94.69, 21.56 93.44, 19.81 92.08 C18.06 90.72, 16.39 89.23, 14.83 87.65 C13.27 86.07, 11.8 84.37, 10.46 82.6 C9.12 80.83, 7.89 78.95, 6.78 77.02 C5.68 75.08, 4.7 73.06, 3.85 70.99 C3.01 68.93, 2.3 66.79, 1.73 64.63 C1.16 62.47, 0.72 60.26, 0.43 58.05 C0.15 55.83, 0 53.58, 0 51.34 C0 49.11, 0.15 46.86, 0.43 44.64 C0.72 42.43, 1.16 40.21, 1.73 38.06 C2.3 35.9, 3.01 33.76, 3.85 31.7 C4.7 29.63, 5.68 27.61, 6.78 25.67 C7.89 23.74, 9.12 21.86, 10.46 20.09 C11.8 18.32, 13.27 16.62, 14.83 15.04 C16.39 13.46, 18.06 11.97, 19.81 10.61 C21.56 9.25, 23.41 8, 25.32 6.88 C27.23 5.76, 29.22 4.76, 31.26 3.91 C33.29 3.05, 35.4 2.33, 37.53 1.75 C39.66 1.17, 41.84 0.73, 44.03 0.44 C46.21 0.15, 48.43 0, 50.64 0 C52.84 0, 55.06 0.15, 57.24 0.44 C59.43 0.73, 61.61 1.17, 63.74 1.75 C65.87 2.33, 67.98 3.05, 70.01 3.91 C72.05 4.76, 74.05 5.76, 75.95 6.88 C77.86 8, 79.71 9.25, 81.46 10.61 C83.21 11.97, 84.88 13.46, 86.44 15.04 C88 16.62, 89.47 18.32, 90.81 20.09 C92.15 21.86, 93.39 23.74, 94.49 25.67 C95.59 27.61, 96.57 29.63, 97.42 31.7 C98.26 33.76, 98.98 35.9, 99.55 38.06 C100.12 40.21, 100.55 42.43, 100.84 44.64 C101.13 46.86, 101.2 50.23, 101.27 51.34 C101.34 52.46, 101.34 50.23, 101.27 51.34" stroke="#000000" stroke-width="4" fill="none"></path></g><g stroke-linecap="round" transform="translate(60.31018056972704 288.9606132684204) rotate(0 50.63571133974719 51.343903106736605)"><path d="M101.27 51.34 C101.27 53.58, 101.13 55.83, 100.84 58.05 C100.55 60.26, 100.12 62.47, 99.55 64.63 C98.98 66.79, 98.26 68.93, 97.42 70.99 C96.57 73.06, 95.59 75.08, 94.49 77.02 C93.39 78.95, 92.15 80.83, 90.81 82.6 C89.47 84.37, 88 86.07, 86.44 87.65 C84.88 89.23, 83.21 90.72, 81.46 92.08 C79.71 93.44, 77.86 94.69, 75.95 95.81 C74.05 96.93, 72.05 97.92, 70.01 98.78 C67.98 99.63, 65.87 100.36, 63.74 100.94 C61.61 101.52, 59.43 101.96, 57.24 102.25 C55.06 102.54, 52.84 102.69, 50.64 102.69 C48.43 102.69, 46.21 102.54, 44.03 102.25 C41.84 101.96, 39.66 101.52, 37.53 100.94 C35.4 100.36, 33.29 99.63, 31.26 98.78 C29.22 97.92, 27.23 96.93, 25.32 95.81 C23.41 94.69, 21.56 93.44, 19.81 92.08 C18.06 90.72, 16.39 89.23, 14.83 87.65 C13.27 86.07, 11.8 84.37, 10.46 82.6 C9.12 80.83, 7.89 78.95, 6.78 77.02 C5.68 75.08, 4.7 73.06, 3.85 70.99 C3.01 68.93, 2.3 66.79, 1.73 64.63 C1.16 62.47, 0.72 60.26, 0.43 58.05 C0.15 55.83, 0 53.58, 0 51.34 C0 49.11, 0.15 46.86, 0.43 44.64 C0.72 42.43, 1.16 40.21, 1.73 38.06 C2.3 35.9, 3.01 33.76, 3.85 31.7 C4.7 29.63, 5.68 27.61, 6.78 25.67 C7.89 23.74, 9.12 21.86, 10.46 20.09 C11.8 18.32, 13.27 16.62, 14.83 15.04 C16.39 13.46, 18.06 11.97, 19.81 10.61 C21.56 9.25, 23.41 8, 25.32 6.88 C27.23 5.76, 29.22 4.76, 31.26 3.91 C33.29 3.05, 35.4 2.33, 37.53 1.75 C39.66 1.17, 41.84 0.73, 44.03 0.44 C46.21 0.15, 48.43 0, 50.64 0 C52.84 0, 55.06 0.15, 57.24 0.44 C59.43 0.73, 61.61 1.17, 63.74 1.75 C65.87 2.33, 67.98 3.05, 70.01 3.91 C72.05 4.76, 74.05 5.76, 75.95 6.88 C77.86 8, 79.71 9.25, 81.46 10.61 C83.21 11.97, 84.88 13.46, 86.44 15.04 C88 16.62, 89.47 18.32, 90.81 20.09 C92.15 21.86, 93.39 23.74, 94.49 25.67 C95.59 27.61, 96.57 29.63, 97.42 31.7 C98.26 33.76, 98.98 35.9, 99.55 38.06 C100.12 40.21, 100.55 42.43, 100.84 44.64 C101.13 46.86, 101.2 50.23, 101.27 51.34 C101.34 52.46, 101.34 50.23, 101.27 51.34" stroke="none" stroke-width="0" fill="#b3b3b3ff"></path><path d="M101.27 51.34 C101.27 53.58, 101.13 55.83, 100.84 58.05 C100.55 60.26, 100.12 62.47, 99.55 64.63 C98.98 66.79, 98.26 68.93, 97.42 70.99 C96.57 73.06, 95.59 75.08, 94.49 77.02 C93.39 78.95, 92.15 80.83, 90.81 82.6 C89.47 84.37, 88 86.07, 86.44 87.65 C84.88 89.23, 83.21 90.72, 81.46 92.08 C79.71 93.44, 77.86 94.69, 75.95 95.81 C74.05 96.93, 72.05 97.92, 70.01 98.78 C67.98 99.63, 65.87 100.36, 63.74 100.94 C61.61 101.52, 59.43 101.96, 57.24 102.25 C55.06 102.54, 52.84 102.69, 50.64 102.69 C48.43 102.69, 46.21 102.54, 44.03 102.25 C41.84 101.96, 39.66 101.52, 37.53 100.94 C35.4 100.36, 33.29 99.63, 31.26 98.78 C29.22 97.92, 27.23 96.93, 25.32 95.81 C23.41 94.69, 21.56 93.44, 19.81 92.08 C18.06 90.72, 16.39 89.23, 14.83 87.65 C13.27 86.07, 11.8 84.37, 10.46 82.6 C9.12 80.83, 7.89 78.95, 6.78 77.02 C5.68 75.08, 4.7 73.06, 3.85 70.99 C3.01 68.93, 2.3 66.79, 1.73 64.63 C1.16 62.47, 0.72 60.26, 0.43 58.05 C0.15 55.83, 0 53.58, 0 51.34 C0 49.11, 0.15 46.86, 0.43 44.64 C0.72 42.43, 1.16 40.21, 1.73 38.06 C2.3 35.9, 3.01 33.76, 3.85 31.7 C4.7 29.63, 5.68 27.61, 6.78 25.67 C7.89 23.74, 9.12 21.86, 10.46 20.09 C11.8 18.32, 13.27 16.62, 14.83 15.04 C16.39 13.46, 18.06 11.97, 19.81 10.61 C21.56 9.25, 23.41 8, 25.32 6.88 C27.23 5.76, 29.22 4.76, 31.26 3.91 C33.29 3.05, 35.4 2.33, 37.53 1.75 C39.66 1.17, 41.84 0.73, 44.03 0.44 C46.21 0.15, 48.43 0, 50.64 0 C52.84 0, 55.06 0.15, 57.24 0.44 C59.43 0.73, 61.61 1.17, 63.74 1.75 C65.87 2.33, 67.98 3.05, 70.01 3.91 C72.05 4.76, 74.05 5.76, 75.95 6.88 C77.86 8, 79.71 9.25, 81.46 10.61 C83.21 11.97, 84.88 13.46, 86.44 15.04 C88 16.62, 89.47 18.32, 90.81 20.09 C92.15 21.86, 93.39 23.74, 94.49 25.67 C95.59 27.61, 96.57 29.63, 97.42 31.7 C98.26 33.76, 98.98 35.9, 99.55 38.06 C100.12 40.21, 100.55 42.43, 100.84 44.64 C101.13 46.86, 101.2 50.23, 101.27 51.34 C101.34 52.46, 101.34 50.23, 101.27 51.34" stroke="#000000" stroke-width="4" fill="none"></path></g><g stroke-linecap="round" transform="translate(61.01837233671637 167.1516293462314) rotate(0 50.63571133974719 51.34390310673663)"><path d="M101.27 51.34 C101.27 53.58, 101.13 55.83, 100.84 58.05 C100.55 60.26, 100.12 62.47, 99.55 64.63 C98.98 66.79, 98.26 68.93, 97.42 70.99 C96.57 73.06, 95.59 75.08, 94.49 77.02 C93.39 78.95, 92.15 80.83, 90.81 82.6 C89.47 84.37, 88 86.07, 86.44 87.65 C84.88 89.23, 83.21 90.72, 81.46 92.08 C79.71 93.44, 77.86 94.69, 75.95 95.81 C74.05 96.93, 72.05 97.92, 70.01 98.78 C67.98 99.63, 65.87 100.36, 63.74 100.94 C61.61 101.52, 59.43 101.96, 57.24 102.25 C55.06 102.54, 52.84 102.69, 50.64 102.69 C48.43 102.69, 46.21 102.54, 44.03 102.25 C41.84 101.96, 39.66 101.52, 37.53 100.94 C35.4 100.36, 33.29 99.63, 31.26 98.78 C29.22 97.92, 27.23 96.93, 25.32 95.81 C23.41 94.69, 21.56 93.44, 19.81 92.08 C18.06 90.72, 16.39 89.23, 14.83 87.65 C13.27 86.07, 11.8 84.37, 10.46 82.6 C9.12 80.83, 7.89 78.95, 6.78 77.02 C5.68 75.08, 4.7 73.06, 3.85 70.99 C3.01 68.93, 2.3 66.79, 1.73 64.63 C1.16 62.47, 0.72 60.26, 0.43 58.05 C0.15 55.83, 0 53.58, 0 51.34 C0 49.11, 0.15 46.86, 0.43 44.64 C0.72 42.43, 1.16 40.21, 1.73 38.06 C2.3 35.9, 3.01 33.76, 3.85 31.7 C4.7 29.63, 5.68 27.61, 6.78 25.67 C7.89 23.74, 9.12 21.86, 10.46 20.09 C11.8 18.32, 13.27 16.62, 14.83 15.04 C16.39 13.46, 18.06 11.97, 19.81 10.61 C21.56 9.25, 23.41 8, 25.32 6.88 C27.23 5.76, 29.22 4.76, 31.26 3.91 C33.29 3.05, 35.4 2.33, 37.53 1.75 C39.66 1.17, 41.84 0.73, 44.03 0.44 C46.21 0.15, 48.43 0, 50.64 0 C52.84 0, 55.06 0.15, 57.24 0.44 C59.43 0.73, 61.61 1.17, 63.74 1.75 C65.87 2.33, 67.98 3.05, 70.01 3.91 C72.05 4.76, 74.05 5.76, 75.95 6.88 C77.86 8, 79.71 9.25, 81.46 10.61 C83.21 11.97, 84.88 13.46, 86.44 15.04 C88 16.62, 89.47 18.32, 90.81 20.09 C92.15 21.86, 93.39 23.74, 94.49 25.67 C95.59 27.61, 96.57 29.63, 97.42 31.7 C98.26 33.76, 98.98 35.9, 99.55 38.06 C100.12 40.21, 100.55 42.43, 100.84 44.64 C101.13 46.86, 101.2 50.23, 101.27 51.34 C101.34 52.46, 101.34 50.23, 101.27 51.34" stroke="none" stroke-width="0" fill="#b3b3b3ff"></path><path d="M101.27 51.34 C101.27 53.58, 101.13 55.83, 100.84 58.05 C100.55 60.26, 100.12 62.47, 99.55 64.63 C98.98 66.79, 98.26 68.93, 97.42 70.99 C96.57 73.06, 95.59 75.08, 94.49 77.02 C93.39 78.95, 92.15 80.83, 90.81 82.6 C89.47 84.37, 88 86.07, 86.44 87.65 C84.88 89.23, 83.21 90.72, 81.46 92.08 C79.71 93.44, 77.86 94.69, 75.95 95.81 C74.05 96.93, 72.05 97.92, 70.01 98.78 C67.98 99.63, 65.87 100.36, 63.74 100.94 C61.61 101.52, 59.43 101.96, 57.24 102.25 C55.06 102.54, 52.84 102.69, 50.64 102.69 C48.43 102.69, 46.21 102.54, 44.03 102.25 C41.84 101.96, 39.66 101.52, 37.53 100.94 C35.4 100.36, 33.29 99.63, 31.26 98.78 C29.22 97.92, 27.23 96.93, 25.32 95.81 C23.41 94.69, 21.56 93.44, 19.81 92.08 C18.06 90.72, 16.39 89.23, 14.83 87.65 C13.27 86.07, 11.8 84.37, 10.46 82.6 C9.12 80.83, 7.89 78.95, 6.78 77.02 C5.68 75.08, 4.7 73.06, 3.85 70.99 C3.01 68.93, 2.3 66.79, 1.73 64.63 C1.16 62.47, 0.72 60.26, 0.43 58.05 C0.15 55.83, 0 53.58, 0 51.34 C0 49.11, 0.15 46.86, 0.43 44.64 C0.72 42.43, 1.16 40.21, 1.73 38.06 C2.3 35.9, 3.01 33.76, 3.85 31.7 C4.7 29.63, 5.68 27.61, 6.78 25.67 C7.89 23.74, 9.12 21.86, 10.46 20.09 C11.8 18.32, 13.27 16.62, 14.83 15.04 C16.39 13.46, 18.06 11.97, 19.81 10.61 C21.56 9.25, 23.41 8, 25.32 6.88 C27.23 5.76, 29.22 4.76, 31.26 3.91 C33.29 3.05, 35.4 2.33, 37.53 1.75 C39.66 1.17, 41.84 0.73, 44.03 0.44 C46.21 0.15, 48.43 0, 50.64 0 C52.84 0, 55.06 0.15, 57.24 0.44 C59.43 0.73, 61.61 1.17, 63.74 1.75 C65.87 2.33, 67.98 3.05, 70.01 3.91 C72.05 4.76, 74.05 5.76, 75.95 6.88 C77.86 8, 79.71 9.25, 81.46 10.61 C83.21 11.97, 84.88 13.46, 86.44 15.04 C88 16.62, 89.47 18.32, 90.81 20.09 C92.15 21.86, 93.39 23.74, 94.49 25.67 C95.59 27.61, 96.57 29.63, 97.42 31.7 C98.26 33.76, 98.98 35.9, 99.55 38.06 C100.12 40.21, 100.55 42.43, 100.84 44.64 C101.13 46.86, 101.2 50.23, 101.27 51.34 C101.34 52.46, 101.34 50.23, 101.27 51.34" stroke="#000000" stroke-width="4" fill="none"></path></g><g transform="translate(326.79998779296875 32.899993896484375) rotate(0 30.100006103515625 60.20001220703125)"><text x="0" y="97.4000244140625" font-family="Helvetica, Segoe UI Emoji" font-size="103.20002092633933px" fill="#fff" text-anchor="start" style="white-space: pre;" direction="ltr">0</text></g></svg>